<svg xmlns="http://www.w3.org/2000/svg" xml:space="preserve" width="2048" height="2048" style="shape-rendering:geometricPrecision;text-rendering:geometricPrecision;image-rendering:optimizeQuality;fill-rule:evenodd;clip-rule:evenodd"><defs><style>.fil3{fill:#009bae}.fil1{fill:#00acc1}.fil0{fill:#455a64;fill-rule:nonzero}</style></defs><g id="Layer_x0020_1"><g id="_355507544"><path id="_490151000" class="fil0" d="M1057.39 575.999v319.999c-10.895-3.92-22.044-5.97-33.392-5.97-11.348 0-22.498 2.05-33.392 5.97V575.999c10.894 3.92 22.044 5.97 33.392 5.97 11.348 0 22.498-2.05 33.392-5.97z"/><path id="_490151312" class="fil0" d="M1057.39 1152v319.999c-10.895-3.92-22.044-5.97-33.392-5.97-11.348 0-22.498 2.05-33.392 5.97V1152c10.894 3.92 22.044 5.97 33.392 5.97 11.348 0 22.498-2.05 33.392-5.97z"/><path id="_490150760" class="fil0" d="m1151.16 489.543 407.292 407.292c-21.885 8.93-40.73 21.948-55.95 38.486l-389.829-389.829c16.538-15.222 29.556-34.065 38.487-55.949z"/><path id="_490151168" class="fil0" d="m512.168 874.211 362.047-362.046c9.65 21.165 22.991 39.685 39.456 54.98L567.148 913.665c-15.294-16.464-33.814-29.804-54.98-39.455z"/><path id="_490151120" class="fil0" d="m896.838 1558.46-407.293-407.294c21.885-8.93 40.73-21.947 55.95-38.484l389.83 389.83c-16.539 15.22-29.557 34.062-38.487 55.948z"/><path id="_490151216" class="fil0" d="m1535.83 1173.79-362.042 362.045c-9.652-21.165-22.992-39.686-39.457-54.98l346.522-346.522c15.293 16.464 33.814 29.805 54.978 39.457z"/><path id="_490149896" class="fil0" d="M1504.01 1057.58h-384.006c4.756-10.955 7.235-22.167 7.235-33.58 0-11.283-2.437-22.369-7.085-33.204h383.703c-4.651 10.835-7.082 21.921-7.082 33.204 0 11.414 2.482 22.625 7.236 33.58z"/><path id="_490150352" class="fil0" d="M928.001 1057.58H543.995c4.754-10.955 7.235-22.166 7.235-33.58 0-11.283-2.43-22.369-7.081-33.204h383.703c-4.648 10.835-7.086 21.921-7.086 33.204 0 11.413 2.48 22.625 7.236 33.58z"/><circle id="_490150376" class="fil1" cx="447.999" cy="1024" r="192"/><circle id="_490150136" class="fil1" cx="1600" cy="1024" r="192"/><circle id="_490150232" class="fil1" transform="rotate(90 288 736) scale(1.20001)" r="159.999"/><circle id="_490150616" class="fil1" transform="rotate(90 -288 1312) scale(1.20001)" r="159.999"/><circle id="_490150040" cx="1024" cy="1024" r="192" style="fill:#ffb300"/><path id="_287145848" class="fil3" d="M1024 255.999c-106.039 0-192 85.96-192 192 0 30.941 7.32 60.174 20.32 86.06a192.633 192.633 0 0 0 40.395 54.041c26.633 24.969 60.39 42.43 97.893 49.005A193.228 193.228 0 0 0 1024 640V256z"/><path id="_355508216" d="M1024 832c-106.039 0-192 85.96-192 192 0 30.941 7.32 60.174 20.32 86.06a192.633 192.633 0 0 0 40.395 54.041c26.633 24.969 60.39 42.43 97.893 49.005A193.228 193.228 0 0 0 1024 1216V832z" style="fill:#e6a100"/><path id="_355508000" class="fil3" d="M448 832c-106.039 0-192 85.96-192 192 0 30.941 7.32 60.174 20.32 86.06a192.633 192.633 0 0 0 40.395 54.041c26.634 24.969 60.39 42.43 97.893 49.005A193.228 193.228 0 0 0 448 1216V832z"/><path id="_355507664" class="fil3" d="M1600 832c-106.039 0-192 85.96-192 192 0 30.941 7.32 60.174 20.32 86.06a192.633 192.633 0 0 0 40.395 54.041c26.634 24.969 60.39 42.43 97.893 49.005A193.228 193.228 0 0 0 1600 1216V832z"/><path id="_355507472" class="fil3" d="M1024 1408c-106.039 0-192 85.96-192 192 0 30.941 7.32 60.174 20.32 86.06a192.633 192.633 0 0 0 40.395 54.041c26.633 24.969 60.39 42.43 97.893 49.005A193.228 193.228 0 0 0 1024 1792v-384z"/></g></g><path style="fill:none" d="M0 0h2048v2048H0z"/></svg>